<?xml version="1.0" encoding="utf-8"?>
<!-- Generator: Adobe Illustrator 25.4.1, SVG Export Plug-In . SVG Version: 6.00 Build 0)  -->
<svg version="1.1" id="katman_1" xmlns="http://www.w3.org/2000/svg" xmlns:xlink="http://www.w3.org/1999/xlink" x="0px" y="0px"
	 viewBox="0 0 500 500" style="enable-background:new 0 0 500 500;" xml:space="preserve">
<style type="text/css">
	.st0{clip-path:url(#SVGID_00000160877154623184344020000011526926635147194779_);}
	.st1{fill:#EC0202;}
	.st2{clip-path:url(#SVGID_00000106106630340413729110000011651238194377112238_);}
	.st3{clip-path:url(#SVGID_00000145053341122526157810000000912224409184334497_);}
	.st4{clip-path:url(#SVGID_00000014615911981443344270000017157884235194472092_);}
	.st5{clip-path:url(#SVGID_00000166672454295311509550000002246646011551927736_);}
	.st6{fill:none;stroke:#000000;stroke-width:4;stroke-linecap:round;}
	.st7{fill-rule:evenodd;clip-rule:evenodd;}
	.st8{clip-path:url(#SVGID_00000142874755552915801460000005294461804630006150_);}
	.st9{clip-path:url(#SVGID_00000041253456750507836710000017805489849696205236_);}
</style>
<g id="_x36_bda8ac464">
	<g>
		<defs>
			<rect id="SVGID_1_" x="14.6" y="280.3" width="106.9" height="8.1"/>
		</defs>
		<clipPath id="SVGID_00000150094388237859366280000009380669972880963486_">
			<use xlink:href="#SVGID_1_"  style="overflow:visible;"/>
		</clipPath>
		<g style="clip-path:url(#SVGID_00000150094388237859366280000009380669972880963486_);">
			<path class="st1" d="M15.4,283.6c0-1.4,139.3-3.3,139.3-3.3c1.5,0,2.8,1.6,2.8,3.2c0,1.6-1.2,3-2.7,3
				C154.7,286.6,15.4,285,15.4,283.6"/>
		</g>
	</g>
	<g>
		<defs>
			<rect id="SVGID_00000065775174664668872090000016565892458271879865_" x="40.5" y="290.5" width="81" height="8.3"/>
		</defs>
		<clipPath id="SVGID_00000129913813790627124840000014303316063580441500_">
			<use xlink:href="#SVGID_00000065775174664668872090000016565892458271879865_"  style="overflow:visible;"/>
		</clipPath>
		<g style="clip-path:url(#SVGID_00000129913813790627124840000014303316063580441500_);">
			<path class="st1" d="M41.5,295.6c0-1.4,139.3-3.3,139.3-3.3c1.5,0,2.8,1.6,2.8,3.2c0,1.6-1.2,3-2.7,3
				C180.8,298.6,41.5,297,41.5,295.6"/>
		</g>
	</g>
	<g>
		<defs>
			<rect id="SVGID_00000027564663205134611920000008206407763651741882_" x="24.6" y="302.9" width="96.9" height="8.3"/>
		</defs>
		<clipPath id="SVGID_00000169556903434575462910000011974904626583513488_">
			<use xlink:href="#SVGID_00000027564663205134611920000008206407763651741882_"  style="overflow:visible;"/>
		</clipPath>
		<g style="clip-path:url(#SVGID_00000169556903434575462910000011974904626583513488_);">
			<path class="st1" d="M24.7,307.6c0-1.4,139.3-3.3,139.3-3.3c1.5,0,2.8,1.6,2.8,3.2c0,1.6-1.2,3-2.7,3
				C164,310.6,24.7,309,24.7,307.6"/>
		</g>
	</g>
	<g>
		<defs>
			<rect id="SVGID_00000065074630080469548990000001587685853091141820_" x="49.4" y="316.3" width="72" height="6.2"/>
		</defs>
		<clipPath id="SVGID_00000031924425798989222000000012705564769859292582_">
			<use xlink:href="#SVGID_00000065074630080469548990000001587685853091141820_"  style="overflow:visible;"/>
		</clipPath>
		<g style="clip-path:url(#SVGID_00000031924425798989222000000012705564769859292582_);">
			<path class="st1" d="M49.5,319.6c0-1.4,139.3-3.3,139.3-3.3c1.5,0,2.8,1.6,2.8,3.2c0,1.6-1.2,3-2.7,3
				C188.8,322.6,49.5,321,49.5,319.6"/>
		</g>
	</g>
	<g>
		<defs>
			<rect id="SVGID_00000074426789480899306900000009286402529934112171_" x="14" y="327.7" width="107.5" height="6.9"/>
		</defs>
		<clipPath id="SVGID_00000141430616849260145380000015203300485659900827_">
			<use xlink:href="#SVGID_00000074426789480899306900000009286402529934112171_"  style="overflow:visible;"/>
		</clipPath>
		<g style="clip-path:url(#SVGID_00000141430616849260145380000015203300485659900827_);">
			<path class="st1" d="M14,331.6c0-1.4,139.3-3.3,139.3-3.3c1.5,0,2.8,1.6,2.8,3.2c0,1.6-1.2,3-2.7,3C153.3,334.6,14,333,14,331.6"
				/>
		</g>
	</g>
	<path class="st6" d="M146.4,259.9h195.5"/>
	<path class="st7" d="M258.7,221.6c-2,3.1-5.1,2.3-9.4-2.3c0.2-3.6,2.2-8.3,6-14.1c-4.9-0.5-8.3-1.1-10.1-2
		c11.9,1.7,18.4-0.3,19.5-5.9c5.1-0.5,7.8-0.2,7.9,0.8l-13.4,20.4c-0.2,0.5,0.1,1.1,1,1.7L258.7,221.6z M274.7,222.7
		c-4.7,0.2-6.8-0.6-6.3-2.3h2.5c13.7-19,20.1-29.7,19.4-32.2c-5.3-4.3-13.8-6.2-25.7-5.6c2.2-2,3.7-5.8,4.6-11.6
		c1.1,2.7,2.5,4.1,4.2,4.2c1.5,1.7,3.8,2.2,5.8,1.2l13.6,2.5l2.2,0.9l-1.2,0.9l0.6,28.3c-8.4,15-14.9,20.8-19.7,17.3
		C276.7,224.9,276.6,223.6,274.7,222.7z M306.1,231.5c0-4.9,3.8-8.8,8.5-8.8s8.5,3.9,8.5,8.8c0,4.9-3.8,8.8-8.5,8.8
		S306.1,236.4,306.1,231.5z M241.4,211.1c-6.8-7.9-17.6-10.8-27.3-7.4s-16.5,12.4-17.3,23c11.4,3.7,24.7,6.5,39.8,8.5l-5.7-0.2
		c-1.6,3.3-5.1,5.2-8.6,4.8c-3.5-0.4-6.5-3-7.4-6.6c-2.1,0.1-5.5-0.4-10.3-1.2c0.3,10.3,8.3,18.6,18.2,19.1
		c9.9,0.5,18.6-7,19.8-17.2c1.3,0.2,2.2,1,2.5,2.3l45.4,0.2l1.2-3.9c1.6,0.5,4.6-0.9,9.1-4.3l-5.1,5.7c1.1,7.8,6.5,14.2,13.8,16.4
		c7.3,2.1,15.2-0.4,20-6.5c4.8-6.1,5.7-14.6,2.3-21.6l-13.9-0.9l15.8-2c-5.3-12.9-14.5-17.5-27.4-13.9l-4-15.3l1.9,1.1
		c2.9-4.1,3.4-9.5,1.5-14.2c-3.7,0.5-5.5,2.8-5.4,7.1l-1-9c-2.3-2.4-4.6-2.3-6.7,0.3l-10.3-4.5c0.3-1.8-1.2-2.7-4.5-2.8
		c-1.2,0.1-1.9-0.4-2.2-1.5c-0.1-5.1-1.8-10.5-5.2-16.2c0.2,0.2,1.4-1.1,3.5-3.9c0.9,1.2,2.6,1.5,5.2,1c1.9-3.9,3.6-6.1,5-6.4l0.2-6
		l6.9-2.5l-11,1.5l-4.3,3.1l3.6-5.9l7.5-0.6c-1.2-5.9-6-10.3-11.7-10.8c-5.8-0.5-11.2,3-13.3,8.6c-2.9,7.5-1.1,12.9,5.3,16.2
		l-1.5,2.4l-2.3-1.3l-0.7,3.1c-10.7,6.8-16.6,20.7-17.5,41.8c0.3,1.4,1.6,2.7,3.7,4.2c-5.2,0.6-15.4,0.3-30.6-0.9
		c-0.9,2.1-0.8,4.4,0.4,6.8C227.6,199.3,236.4,203.4,241.4,211.1z"/>
	<path class="st7" d="M198.2,158.3h13.9l3.6,18.2l-0.5-18.2h9.6l-0.3,14.6l2.8-14.6h12.6c3.7,0,7.3,3.2,6.8,7l-3.4,23.7
		c-0.5,3.8-3,7-6.8,7h-33.5c-3.7,0-6-3.2-6.8-7l-4.7-23.7C190.7,161.5,194.5,158.3,198.2,158.3z"/>
	<g>
		<defs>
			<rect id="SVGID_00000151518537584971289320000004180193144528382874_" x="358.9" y="176.5" width="25.4" height="35.2"/>
		</defs>
		<clipPath id="SVGID_00000076598113846526528350000002242874539032008107_">
			<use xlink:href="#SVGID_00000151518537584971289320000004180193144528382874_"  style="overflow:visible;"/>
		</clipPath>
		<g style="clip-path:url(#SVGID_00000076598113846526528350000002242874539032008107_);">
			<path class="st7" d="M383.1,191.5c-0.3,5.2-4.2,11.8-11.4,19.9l0,0l0,0c-7.3-8.1-11.1-14.7-11.4-19.9
				C358.8,172.7,384.3,172.7,383.1,191.5z M371.4,196.4c3.3,0,6-2.8,6-6.2c0-3.4-2.7-6.2-6-6.2c-3.3,0-6,2.8-6,6.2
				C365.5,193.6,368.1,196.4,371.4,196.4z"/>
		</g>
	</g>
	<path class="st7" d="M159.3,191.5c-0.3,5.2-4.2,11.8-11.5,19.9l0,0l0,0c-7.3-8.1-11.1-14.7-11.4-19.9
		C135.1,172.7,160.6,172.7,159.3,191.5z M147.7,196.4c3.3,0,6-2.8,6-6.2c0-3.4-2.7-6.2-6-6.2c-3.3,0-6,2.8-6,6.2
		C141.7,193.6,144.4,196.4,147.7,196.4z"/>
	<g>
		<defs>
			<rect id="SVGID_00000119104479037489018360000014771829831549264824_" x="146" y="83" width="226.9" height="83.2"/>
		</defs>
		<clipPath id="SVGID_00000072278539303000681340000002687816590633784212_">
			<use xlink:href="#SVGID_00000119104479037489018360000014771829831549264824_"  style="overflow:visible;"/>
		</clipPath>
		<g style="clip-path:url(#SVGID_00000072278539303000681340000002687816590633784212_);">
			<path d="M151.7,152.3l-0.2,0.5l-0.8,1.6l-0.2,0.5l-0.2,0.6l-0.2,0.5l-0.5,1.1l-0.2,0.6l-0.2,0.6l-0.5,1.1l-0.5,1.1l-0.2,0.6
				l-0.2,0.6l-0.2,0.6l-0.2,0.6l-0.2,0.6l-0.2,0.6l2.3,0.9l0.6-1.7l0.9-2.2l0.5-1.1l0.2-0.5l0.7-1.6l0.2-0.5l0.5-1.1l0.7-1.6
				l0.2-0.5l0.2-0.5L151.7,152.3z M370.9,158.2l-0.2-0.5l-0.2-0.6L370,156l-0.2-0.5l-0.2-0.6l-0.5-1.1l-0.5-1.1l-0.3-0.5l-0.3-0.5
				l-0.5-1.1l-0.3-0.5l-0.3-0.5l-0.3-0.5l-0.3-0.5l-0.6-1.1l-0.3-0.5l-0.1-0.1l-2.1,1.2l0.1,0.1l0.3,0.5l0.3,0.5l0.5,1l0.8,1.6
				l0.3,0.5l0.8,1.6l0.2,0.5l0.5,1.1l0.2,0.5l0.2,0.5l0.2,0.5l0.2,0.5l0.5,1.1l0.2,0.5L370.9,158.2z M361.6,140.3l-0.3-0.5l-0.3-0.5
				l-0.3-0.5l-0.3-0.5l-0.3-0.5l-0.3-0.5l-0.3-0.5l-0.3-0.5l-0.3-0.5l-0.3-0.5l-0.7-1l-0.7-1l-1-1.4l-0.7-0.9l-0.3-0.5l-0.4-0.5
				l-0.2-0.2l-1.9,1.6l0.2,0.2l0.3,0.5l0.3,0.5l0.3,0.5l0.3,0.5l0.7,0.9l0.3,0.5l0.3,0.5l0.3,0.5l0.7,0.9l0.3,0.5l0.3,0.5l1,1.4
				l0.3,0.5l0.3,0.5l0.9,1.5v0L361.6,140.3z M349.7,124.2l-0.2-0.3l-0.4-0.4l-0.4-0.4l-1.2-1.3l-0.4-0.4l-0.8-0.8l-0.4-0.4l-0.4-0.4
				l-0.4-0.4l-0.4-0.4l-0.4-0.4l-0.8-0.8l-0.8-0.8l-0.8-0.8l-0.4-0.4l-0.4-0.4l0,0l-1.6,1.9l0,0l0.4,0.4l0.4,0.4l0.8,0.8l0.8,0.8
				l0.8,0.8l0.4,0.4l0.4,0.4l0.4,0.4l0.4,0.4l0.4,0.4l0.8,0.8l0.8,0.8l0.8,0.8l0.4,0.4l0.4,0.4l0.2,0.3L349.7,124.2z M335.4,110.3
				L335,110l-0.4-0.4l-0.9-0.7l-0.5-0.4l-0.4-0.3l-0.5-0.3l-0.5-0.3l-0.5-0.3l-0.5-0.3l-0.5-0.3l-0.5-0.3l-0.5-0.3l-0.5-0.3
				l-0.5-0.3l-0.5-0.3l-0.5-0.3l-0.9-0.6l-0.5-0.3l-0.5-0.3l-0.4-0.3l-1.3,2.1l0.4,0.3l0.5,0.3l0.5,0.3l0.5,0.3l0.5,0.3l0.5,0.3
				l0.5,0.3l0.5,0.3l1.8,1.3l1.8,1.4l0.4,0.3l1.3,1l0.4,0.4l0.4,0.3L335.4,110.3z M319.2,99L319.2,99l-0.6-0.3l-0.5-0.3l-0.5-0.3
				l-1.5-0.8l-0.5-0.3l-0.5-0.3l-1-0.5l-1-0.5l-0.5-0.3l-0.5-0.3l-0.5-0.3l-0.5-0.2l-0.5-0.3l-1-0.5l-0.5-0.2l-0.5-0.2l-0.3-0.1
				l-1,2.3l0.3,0.1l2,0.9l0.5,0.2l0.5,0.2l0.5,0.3l0.5,0.2l0.5,0.3l0.5,0.3l0.5,0.3l0.5,0.3L314,99l0.5,0.3l0.5,0.3l0.5,0.3l0.5,0.3
				l0.5,0.3l0.5,0.3l0.5,0.3l0.5,0.3l0.1,0L319.2,99z M301.4,90.6l-0.2-0.1l-0.5-0.2l-1.6-0.6l-0.5-0.2l-0.5-0.2l-0.5-0.2l-0.5-0.2
				l-0.5-0.2l-0.5-0.2l-1.6-0.5l-0.6-0.2l-0.5-0.2l-0.6-0.2l-0.5-0.2l-1.1-0.3l-1.1-0.3l0,0l-0.6,2.4l0,0l0.5,0.1l0.5,0.1l0.5,0.1
				l1.1,0.3l0.5,0.2l1.1,0.3l0.5,0.2l1.1,0.3l0.5,0.2l1.1,0.4l0.5,0.2l0.5,0.2l1.1,0.4l0.5,0.2l0.5,0.2l0.5,0.2l0.2,0.1L301.4,90.6z
				 M282.5,85.2L282.5,85.2l-0.6-0.1l-1.1-0.2l-2.3-0.4l-0.6-0.1l-0.6-0.1l-0.6-0.1l-0.6-0.1l-0.6-0.1l-1.7-0.2l-1.7-0.2l-0.6-0.1
				l-0.6-0.1l-0.6-0.1h0l-0.2,2.5l0,0l0.6,0l1.7,0.2l0.6,0.1l0.6,0.1l0.6,0.1l1.1,0.1l0.6,0.1l0.6,0.1l1.1,0.2l0.6,0.1l0.6,0.1
				l0.6,0.1l0.6,0.1l0.6,0.1l0.6,0.1l0.6,0.1l0.6,0.1l0.1,0L282.5,85.2z M263.1,83l-0.2,0l-0.6,0l-0.6,0l-0.6,0h-2.4l-0.6,0l-0.6,0
				l-0.6,0l-0.6,0l-0.6,0l-0.6,0l-0.6,0l-0.6,0l-1.7,0.1l-0.6,0l-0.6,0l-0.3,0l0.2,2.5l0.3,0l0.6,0l0.6,0l0.6,0l0.6,0l0.6,0l1.7-0.1
				l0.6,0l1.2,0l1.2,0h0.6l0.6,0l0.6,0h0.6l1.2,0l0.6,0h0.2L263.1,83z M243.6,84.1l-0.5,0.1l-0.6,0.1l-0.6,0.1l-0.6,0.1l-2.3,0.4
				l-1.1,0.2l-0.6,0.1l-0.6,0.1l-0.6,0.1l-0.6,0.1l-1.1,0.2l-1.7,0.4l-0.6,0.1l-0.6,0.1l-0.3,0.1l0.6,2.4l0.3-0.1l0.5-0.1l0.6-0.1
				l0.5-0.1l0.6-0.1l0.5-0.1l0.6-0.1l0.6-0.1l0.6-0.1l0.6-0.1l0.6-0.1l1.1-0.2l0.6-0.1l0.6-0.1l0.6-0.1l0.6-0.1l0.6-0.1l0.6-0.1
				l1.1-0.2l0.5-0.1L243.6,84.1z M224.5,88.5l-0.3,0.1L223,89l-0.5,0.2l-0.5,0.2l-1.1,0.4l-1.6,0.6l-0.5,0.2l-0.5,0.2l-0.5,0.2
				l-0.5,0.2l-0.5,0.2l-0.5,0.2l-1.1,0.4l-0.5,0.2l-0.5,0.2l-0.5,0.2l-0.5,0.2l0.9,2.3l0.5-0.2l1.5-0.7l0.5-0.2l0.5-0.2l0.5-0.2
				L219,93l0.5-0.2l0.5-0.2l0.5-0.2l0.5-0.2l0.5-0.2l1.1-0.4l1.6-0.5l0.5-0.2l0.3-0.1L224.5,88.5z M206.3,96L206.3,96l-0.5,0.3
				l-0.5,0.3l-0.5,0.3l-0.5,0.3l-0.5,0.3l-1.5,0.8l-0.5,0.3l-0.5,0.3l-0.5,0.3l-0.5,0.3l-1,0.6l-0.5,0.3l-0.5,0.3l-1.4,0.9l-0.5,0.3
				l-0.5,0.3l-0.3,0.2l1.3,2.1l0.3-0.2l0.5-0.3l0.5-0.3l0.5-0.3l0.5-0.3l0.9-0.6l0.5-0.3l1.9-1.1l1-0.6l0.5-0.3l0.5-0.3l0.5-0.3
				l0.5-0.3l0.5-0.3l0.5-0.3l0.5-0.3l0.5-0.3l0,0L206.3,96z M189.5,106.4l-0.1,0.1l-0.5,0.3l-0.5,0.3l-1.8,1.4l-0.4,0.4l-0.5,0.4
				l-0.4,0.4l-0.4,0.4l-0.4,0.4l-0.4,0.4l-0.4,0.4l-1.3,1.1l-0.4,0.4l-0.4,0.4l-0.9,0.8l-0.4,0.4l-0.2,0.2l1.6,1.9l0.2-0.2l0.4-0.4
				l1.3-1.1l0.4-0.4l0.4-0.4l0.4-0.4l0.4-0.4l0.4-0.4l0.4-0.4l0.9-0.7l0.9-0.7l0.4-0.3l0.4-0.3l1.3-1l0.5-0.3l0.4-0.3l0.1-0.1
				L189.5,106.4z M174.5,119.5l-0.2,0.2l-0.8,0.8l-0.4,0.4l-0.4,0.4l-0.4,0.4l-1.2,1.3l-0.8,0.9l-0.8,0.9l-0.4,0.4l-0.4,0.4
				l-0.4,0.4l-0.4,0.4l-0.4,0.4l-0.4,0.5l-0.4,0.4l-0.7,0.9l0,0l1.9,1.6l0,0l1.1-1.3l0.4-0.4l0.4-0.4l0.4-0.4l0.4-0.4l0.4-0.4
				l0.4-0.4l0.4-0.4l0.4-0.4l0.4-0.4l0.4-0.4l0.4-0.4l0.4-0.4l0.4-0.4l0.4-0.4l0.4-0.4l0.4-0.4l0.4-0.4l0.4-0.4l0.2-0.2L174.5,119.5
				z M161.8,134.9L161.8,134.9l-0.3,0.5l-0.3,0.5l-0.3,0.5l-0.3,0.5l-0.3,0.5l-0.3,0.5l-1,1.5l-0.3,0.5l-0.3,0.5l-0.3,0.5l-0.3,0.5
				l-0.3,0.5l-0.3,0.5l-0.3,0.5l-0.3,0.5l-0.3,0.5l-0.3,0.5l-0.3,0.5l-0.3,0.5l-0.1,0.2l2.1,1.3l0.1-0.2l0.3-0.5l0.3-0.5l0.3-0.5
				l0.3-0.5l0.3-0.5l0.6-1l0.9-1.5l0.3-0.5l0.6-1l0.3-0.5l0.3-0.5l0.3-0.5l0.3-0.5l0.3-0.5l0.3-0.5l0.3-0.5l0.3-0.5l0,0L161.8,134.9
				z"/>
		</g>
	</g>
	<g>
		<g transform="translate(99.628579, 245.442681)">
			<path class="st1" d="M-5.3,124.6h-12l3.4-20.4h12c2.3,0,4.2-0.6,5.7-1.7c1.5-1.1,2.5-3.1,3-5.9l11.8-69.2h22L28.8,96.9
				c-1.2,7.3-3.2,13-5.9,17c-2.7,4-6.3,6.8-10.9,8.4C7.4,123.8,1.7,124.6-5.3,124.6z"/>
		</g>
	</g>
	<g>
		<g transform="translate(124.344313, 245.442681)">
			<path class="st1" d="M77.3,124.6H13.6l16.5-97.2h63.7l-3.5,20.4H48.5l-3,18.1h37.8l-3.4,20.2H42l-3.1,18.1h41.9L77.3,124.6z"/>
		</g>
	</g>
	<g>
		<g transform="translate(162.70903, 245.442681)">
			<path class="st1" d="M93.4,124.6H71.5l13-76.8H58.2l3.5-20.4h74.5l-3.5,20.4h-26.3L93.4,124.6z"/>
		</g>
	</g>
	<g>
		<g transform="translate(80.346722, 269.091163)">
			<path d="M-22.1,150.2c-1.4,0-2.6-0.3-3.7-0.7c-1-0.5-1.9-1.2-2.5-2c-0.7-0.9-1.2-1.8-1.5-2.9c-0.3-1.1-0.5-2.2-0.5-3.4
				c0-1.2,0.2-2.3,0.5-3.4c0.3-1.1,0.8-2.1,1.5-2.9c0.7-0.9,1.5-1.5,2.5-2c1-0.5,2.2-0.7,3.6-0.7c2.1,0,3.8,0.5,5,1.6
				c1.3,1,2.1,2.4,2.5,4h-3.1c-0.3-0.9-0.8-1.7-1.6-2.2c-0.7-0.5-1.7-0.8-2.8-0.8c-1.2,0-2.2,0.3-3,0.9c-0.8,0.6-1.4,1.4-1.7,2.4
				c-0.4,1-0.6,2-0.6,3.2c0,1.2,0.2,2.3,0.6,3.3c0.4,1,1,1.8,1.8,2.4c0.8,0.6,1.8,0.9,3,0.9c1.4,0,2.6-0.4,3.5-1.2
				c0.8-0.8,1.3-2,1.3-3.5H-21v-2.5h6.6v9.4H-17v-2.2c-0.6,0.9-1.4,1.5-2.3,1.9C-20.2,150.1-21.1,150.2-22.1,150.2z"/>
		</g>
	</g>
	<g>
		<g transform="translate(89.920867, 269.091163)">
			<path d="M-16,131.3c-0.4,0-0.8-0.1-1.2-0.4c-0.3-0.3-0.5-0.7-0.5-1.2c0-0.5,0.2-0.8,0.5-1.1c0.3-0.3,0.7-0.5,1.2-0.5
				c0.4,0,0.8,0.2,1.1,0.5c0.3,0.3,0.5,0.7,0.5,1.1c0,0.5-0.2,0.9-0.5,1.2C-15.2,131.2-15.5,131.3-16,131.3z M-11.3,131.3
				c-0.5,0-0.9-0.1-1.2-0.4c-0.3-0.3-0.5-0.7-0.5-1.2c0-0.5,0.2-0.8,0.5-1.1c0.3-0.3,0.7-0.5,1.2-0.5c0.4,0,0.8,0.2,1.1,0.5
				c0.3,0.3,0.5,0.7,0.5,1.1c0,0.5-0.2,0.9-0.5,1.2C-10.6,131.2-10.9,131.3-11.3,131.3z M-13.6,150.2c-1.6,0-2.8-0.3-3.8-0.8
				c-1-0.5-1.7-1.3-2.2-2.3c-0.5-1-0.7-2.1-0.7-3.5v-11.3h2.8v11.3c0,1.2,0.3,2.1,0.9,2.9c0.6,0.7,1.6,1.1,3,1.1
				c1.4,0,2.4-0.4,2.9-1.1c0.6-0.8,0.9-1.7,0.9-2.9v-11.3H-7v11.3c0,1.3-0.2,2.5-0.7,3.5c-0.5,1-1.2,1.8-2.2,2.3
				C-10.9,150-12.1,150.2-13.6,150.2z"/>
		</g>
	</g>
	<g>
		<g transform="translate(98.526481, 269.091163)">
			<path d="M-3.9,150H-7l-6.1-17.6h2.9l4.7,14.4l4.7-14.4h2.9L-3.9,150z"/>
		</g>
	</g>
	<g>
		<g transform="translate(106.820387, 269.091163)">
			<path d="M7.8,150H-3.4v-17.6H7.8v2.6h-8.4v4.9h7.5v2.6h-7.5v4.9h8.4V150z"/>
		</g>
	</g>
	<g>
		<g transform="translate(114.212559, 269.091163)">
			<path d="M6.7,150H3.9v-17.6h3.4l7.2,13.6v-13.6h2.8V150h-3.4l-7.2-13.6V150z"/>
		</g>
	</g>
	<g>
		<g transform="translate(123.018566, 269.091163)">
			<path d="M22.7,150H12.6v-17.6h2.8v15h7.3V150z"/>
		</g>
	</g>
	<g>
		<g transform="translate(129.53127, 269.091163)">
			<path d="M30.3,150H19.1v-17.6h11.2v2.6h-8.4v4.9h7.5v2.6h-7.5v4.9h8.4V150z"/>
		</g>
	</g>
	<g>
		<g transform="translate(136.923442, 269.091163)">
			<path d="M24.8,150"/>
		</g>
	</g>
	<g>
		<g transform="translate(140.452643, 269.091163)">
			<path d="M36.7,150h-2.8v-15h-5.3v-2.6h13.5v2.6h-5.4V150z"/>
		</g>
	</g>
	<g>
		<g transform="translate(147.989537, 269.091163)">
			<path d="M38.9,150h-3l6.1-17.6h3.1l6.1,17.6h-3l-1.2-3.9h-6.8L38.9,150z M43.6,135.5l-2.6,8.1h5.2L43.6,135.5z"/>
		</g>
	</g>
	<g>
		<g transform="translate(156.327974, 269.091163)">
			<path d="M52.1,150.2c-0.1,0.1-0.2,0.2-0.4,0.3c-0.1,0.1-0.3,0.3-0.5,0.4l0.2,0.2c0.4-0.1,0.8-0.1,1,0c0.3,0,0.5,0.1,0.7,0.2
				c0.7,0.3,1.1,0.8,1.1,1.6c0,0.7-0.3,1.2-0.8,1.5c-0.5,0.3-1.2,0.5-2,0.5c-0.3,0-0.6,0-1-0.1c-0.4,0-0.7-0.1-1.1-0.2v-1
				c0.8,0.3,1.4,0.4,2,0.4c0.4,0,0.7-0.1,1-0.3c0.2-0.2,0.4-0.4,0.4-0.8c0-0.5-0.3-0.9-0.9-1.1c-0.6-0.2-1.3-0.3-2.2-0.3l1.2-1.5
				c-0.9-0.2-1.8-0.4-2.6-0.9c-0.8-0.4-1.5-1-2.1-1.8c-0.6-0.8-0.9-1.8-1.1-3.1h2.9c0.2,0.9,0.5,1.5,1,2c0.5,0.5,1,0.9,1.6,1.1
				c0.6,0.2,1.2,0.3,1.9,0.3c1,0,1.8-0.2,2.4-0.6c0.6-0.5,0.9-1.1,0.9-2c0-0.7-0.2-1.2-0.6-1.6c-0.4-0.4-0.9-0.7-1.6-0.9
				c-0.6-0.2-1.3-0.4-2.1-0.6c-0.7-0.1-1.4-0.3-2.1-0.5c-0.7-0.2-1.3-0.5-1.9-0.8c-0.6-0.3-1-0.8-1.3-1.4c-0.3-0.6-0.5-1.3-0.5-2.2
				c0-1.1,0.2-2,0.7-2.8c0.5-0.8,1.2-1.3,2.1-1.7c0.9-0.4,1.9-0.6,3-0.6c1.1,0,2.1,0.2,3,0.6c0.9,0.4,1.7,1,2.4,1.7
				c0.6,0.8,1.1,1.8,1.2,3.1H55c-0.2-1-0.7-1.8-1.4-2.2c-0.7-0.5-1.5-0.7-2.4-0.7c-0.9,0-1.6,0.2-2.2,0.6c-0.5,0.4-0.8,1-0.8,1.7
				c0,0.6,0.2,1.1,0.6,1.4c0.4,0.3,0.9,0.6,1.5,0.8c0.6,0.2,1.3,0.3,2,0.5c0.7,0.2,1.4,0.3,2.1,0.6c0.7,0.2,1.4,0.5,2,0.9
				c0.6,0.3,1.1,0.8,1.4,1.5c0.4,0.6,0.6,1.4,0.6,2.4c0,1.6-0.5,2.9-1.6,3.9C55.6,149.8,54.1,150.2,52.1,150.2z"/>
		</g>
	</g>
	<g>
		<g transform="translate(164.499424, 269.091163)">
			<path d="M56.5,150h-2.8v-17.6h2.8V150z"/>
		</g>
	</g>
	<g>
		<g transform="translate(168.017486, 269.091163)">
			<path d="M66.7,142.3l3.1,7.7h-3l-2.8-7.2h-4v7.2h-2.8v-17.6h7c1.1,0,2,0.2,2.8,0.6c0.8,0.3,1.4,0.9,1.9,1.7
				c0.5,0.8,0.7,1.7,0.7,2.9c0,1.2-0.2,2.2-0.7,3C68.3,141.3,67.6,141.9,66.7,142.3z M60,135v5.2h3.8c0.9,0,1.7-0.2,2.2-0.7
				c0.5-0.5,0.8-1.1,0.8-1.9s-0.3-1.5-0.8-1.9c-0.5-0.5-1.2-0.7-2.2-0.7H60z"/>
		</g>
	</g>
	<g>
		<g transform="translate(176.077607, 269.091163)">
			<path d="M64.8,153.9v-1.4c0.7-0.1,1.2-0.3,1.6-0.7c0.4-0.4,0.6-0.9,0.7-1.5c0-0.2,0-0.4,0-0.7c-0.2,0.3-0.6,0.5-1.1,0.5
				c-0.4,0-0.7-0.1-1-0.4c-0.3-0.3-0.4-0.7-0.4-1.2c0-0.5,0.2-0.9,0.5-1.2c0.3-0.3,0.8-0.5,1.3-0.5c0.7,0,1.2,0.3,1.6,0.8
				c0.4,0.5,0.6,1.2,0.6,2.1c0,0.6-0.1,1.2-0.4,1.8c-0.2,0.6-0.7,1.1-1.2,1.5C66.4,153.6,65.7,153.8,64.8,153.9z"/>
		</g>
	</g>
	<g>
		<g transform="translate(179.606808, 269.091163)">
			<path d="M71.5,150h-2.8v-17.6h2.8v7.5h7.6v-7.5h2.8V150h-2.8v-7.5h-7.6V150z"/>
		</g>
	</g>
	<g>
		<g transform="translate(188.379409, 269.091163)">
			<path d="M80.1,150h-2.8v-17.6h2.8V150z"/>
		</g>
	</g>
	<g>
		<g transform="translate(191.897471, 269.091163)">
			<path d="M92.5,150H79.9v-2L89,135h-8.6v-2.6h12.1v2.1l-9,12.8h9V150z"/>
		</g>
	</g>
	<g>
		<g transform="translate(199.412099, 269.091163)">
			<path d="M98.4,150H88.3v-17.6h2.8v15h7.3V150z"/>
		</g>
	</g>
	<g>
		<g transform="translate(205.924803, 269.091163)">
			<path d="M96.3,150h-3l6.1-17.6h3.1l6.1,17.6h-3l-1.2-3.9h-6.8L96.3,150z M100.9,135.5l-2.6,8.1h5.2L100.9,135.5z"/>
		</g>
	</g>
	<g>
		<g transform="translate(214.263241, 269.091163)">
			<path d="M101.4,150"/>
		</g>
	</g>
	<g>
		<g transform="translate(217.792441, 269.091163)">
			<path d="M113,150.2c-1.6,0-2.8-0.3-3.8-0.8c-1-0.5-1.7-1.3-2.2-2.3c-0.5-1-0.7-2.1-0.7-3.5v-11.3h2.8v11.3c0,1.2,0.3,2.1,0.9,2.9
				c0.6,0.7,1.6,1.1,3,1.1c1.4,0,2.4-0.4,2.9-1.1c0.6-0.8,0.9-1.7,0.9-2.9v-11.3h2.8v11.3c0,1.3-0.2,2.5-0.7,3.5
				c-0.5,1-1.2,1.8-2.2,2.3C115.8,150,114.5,150.2,113,150.2z"/>
		</g>
	</g>
	<g>
		<g transform="translate(226.398056, 269.091163)">
			<path d="M125.1,150H115v-17.6h2.8v15h7.3V150z"/>
		</g>
	</g>
	<g>
		<g transform="translate(232.91076, 269.091163)">
			<path d="M123,150h-3l6.1-17.6h3.1l6.1,17.6h-3l-1.2-3.9h-6.8L123,150z M127.7,135.5l-2.6,8.1h5.2L127.7,135.5z"/>
		</g>
	</g>
	<g>
		<g transform="translate(241.249198, 269.091163)">
			<path d="M136.2,150.2c-0.1,0.1-0.2,0.2-0.4,0.3c-0.1,0.1-0.3,0.3-0.5,0.4l0.2,0.2c0.4-0.1,0.8-0.1,1,0c0.3,0,0.5,0.1,0.7,0.2
				c0.7,0.3,1.1,0.8,1.1,1.6c0,0.7-0.3,1.2-0.8,1.5c-0.5,0.3-1.2,0.5-2,0.5c-0.3,0-0.6,0-1-0.1c-0.4,0-0.7-0.1-1.1-0.2v-1
				c0.8,0.3,1.4,0.4,2,0.4c0.4,0,0.7-0.1,1-0.3c0.2-0.2,0.4-0.4,0.4-0.8c0-0.5-0.3-0.9-0.9-1.1c-0.6-0.2-1.3-0.3-2.2-0.3l1.2-1.5
				c-0.9-0.2-1.8-0.4-2.6-0.9c-0.8-0.4-1.5-1-2.1-1.8c-0.6-0.8-0.9-1.8-1.1-3.1h2.9c0.2,0.9,0.5,1.5,1,2c0.5,0.5,1,0.9,1.6,1.1
				c0.6,0.2,1.2,0.3,1.9,0.3c1,0,1.8-0.2,2.4-0.6c0.6-0.5,0.9-1.1,0.9-2c0-0.7-0.2-1.2-0.6-1.6c-0.4-0.4-0.9-0.7-1.6-0.9
				c-0.6-0.2-1.3-0.4-2.1-0.6c-0.7-0.1-1.4-0.3-2.1-0.5c-0.7-0.2-1.3-0.5-1.9-0.8c-0.6-0.3-1-0.8-1.3-1.4c-0.3-0.6-0.5-1.3-0.5-2.2
				c0-1.1,0.2-2,0.7-2.8c0.5-0.8,1.2-1.3,2.1-1.7c0.9-0.4,1.9-0.6,3-0.6c1.1,0,2.1,0.2,3,0.6c0.9,0.4,1.7,1,2.4,1.7
				c0.6,0.8,1.1,1.8,1.2,3.1h-2.8c-0.2-1-0.7-1.8-1.4-2.2c-0.7-0.5-1.5-0.7-2.4-0.7c-0.9,0-1.6,0.2-2.2,0.6c-0.5,0.4-0.8,1-0.8,1.7
				c0,0.6,0.2,1.1,0.6,1.4c0.4,0.3,0.9,0.6,1.5,0.8c0.6,0.2,1.3,0.3,2,0.5c0.7,0.2,1.4,0.3,2.1,0.6c0.7,0.2,1.4,0.5,2,0.9
				c0.6,0.3,1.1,0.8,1.4,1.5c0.4,0.6,0.6,1.4,0.6,2.4c0,1.6-0.5,2.9-1.6,3.9C139.7,149.8,138.2,150.2,136.2,150.2z"/>
		</g>
	</g>
	<g>
		<g transform="translate(249.420648, 269.091163)">
			<path d="M144.6,150h-2.8v-15h-5.3v-2.6H150v2.6h-5.4V150z"/>
		</g>
	</g>
	<g>
		<g transform="translate(256.957541, 269.091163)">
			<path d="M148.1,150h-2.8v-17.6h2.8V150z"/>
		</g>
	</g>
	<g>
		<g transform="translate(260.475603, 269.091163)">
			<path d="M158.3,142.3l3.1,7.7h-3l-2.8-7.2h-4v7.2h-2.8v-17.6h7c1.1,0,2,0.2,2.8,0.6c0.8,0.3,1.4,0.9,1.9,1.7
				c0.5,0.8,0.7,1.7,0.7,2.9c0,1.2-0.2,2.2-0.7,3C159.8,141.3,159.2,141.9,158.3,142.3z M151.5,135v5.2h3.8c0.9,0,1.7-0.2,2.2-0.7
				c0.5-0.5,0.8-1.1,0.8-1.9s-0.3-1.5-0.8-1.9c-0.5-0.5-1.2-0.7-2.2-0.7H151.5z"/>
		</g>
	</g>
	<g>
		<g transform="translate(268.535724, 269.091163)">
			<path d="M159.5,150h-2.8v-17.6h2.8V150z"/>
		</g>
	</g>
	<g>
		<g transform="translate(272.053786, 269.091163)">
			<path d="M169.7,142.3l3.1,7.7h-3l-2.8-7.2h-4v7.2h-2.8v-17.6h7c1.1,0,2,0.2,2.8,0.6c0.8,0.3,1.4,0.9,1.9,1.7
				c0.5,0.8,0.7,1.7,0.7,2.9c0,1.2-0.2,2.2-0.7,3C171.3,141.3,170.6,141.9,169.7,142.3z M163,135v5.2h3.8c0.9,0,1.7-0.2,2.2-0.7
				c0.5-0.5,0.8-1.1,0.8-1.9s-0.3-1.5-0.8-1.9c-0.5-0.5-1.2-0.7-2.2-0.7H163z"/>
		</g>
	</g>
	<g>
		<g transform="translate(280.113907, 269.091163)">
			<path d="M169.3,150.2c-0.5,0-0.9-0.2-1.2-0.5c-0.3-0.3-0.5-0.8-0.5-1.2c0-0.5,0.2-0.8,0.5-1.2c0.3-0.3,0.7-0.5,1.2-0.5
				c0.4,0,0.8,0.2,1.1,0.5c0.3,0.3,0.5,0.7,0.5,1.2c0,0.5-0.2,0.9-0.5,1.2C170.1,150,169.7,150.2,169.3,150.2z"/>
		</g>
	</g>
	<g>
		<g transform="translate(202.167367, 245.812899)">
			<path d="M149,125H90.6l16.1-94.6H128l-12.7,74.8h37.1L149,125z"/>
		</g>
	</g>
	<g>
		<g transform="translate(235.564154, 245.812899)">
			<path d="M202.1,125h-21.4l-2.1-17h-30.3l-7.7,17h-23.8l47.2-94.6H187L202.1,125z M172.4,55.1L157,88.8h19.3L172.4,55.1z"/>
		</g>
	</g>
</g>
</svg>
